<svg width="1426px" height="1080px" viewBox="0 0 1426 1080" version="1.1" xmlns="http://www.w3.org/2000/svg" xmlns:xlink="http://www.w3.org/1999/xlink">
    <title>Artboard</title>
    <g id="Artboard" stroke="none" stroke-width="1" fill="none" fill-rule="evenodd">
        <rect fill="#FFFFFF" x="0" y="0" width="1426" height="1080"></rect>
        <g id="logo" transform="translate(1.000000, -208.000000)" fill-rule="nonzero">
            <rect id="bg" fill="#FFFFFF" x="0" y="0" width="1444" height="1444"></rect>
            <g id="logo/square/blue" transform="translate(326.000000, 297.000000)" fill="#1F36C7">
                <g id="Group-2" transform="translate(0.057180, 0.302981)">
                    <path d="M748.125167,755.311139 C762.259693,755.399636 771.480958,763.201369 771.417266,773.137279 C771.374152,780.074376 766.043232,786.08671 758.540512,786.042609 C742.628557,785.943718 746.665431,774.290565 740.051426,774.250475 C722.348344,774.139556 709.292875,807.292233 695.873157,836.1458 C690.487462,847.750841 687.359847,849.889031 682.94914,849.861504 C671.850487,849.792812 669.433564,819.99443 665.073523,807.01961 C655.670134,826.370254 637.828753,849.583002 608.627166,849.40126 C591.825127,849.299697 575.135376,840.557161 575.302626,814.252047 C575.495518,784.913374 595.043121,763.862872 614.94402,763.985819 C629.99054,764.078026 640.060808,779.268549 639.990971,790.042366 C639.803369,818.978792 600.854682,819.572137 600.81497,825.624561 C600.779367,831.237313 610.942752,833.471727 616.678998,833.507805 C641.472618,833.657481 658.302047,801.116862 663.926,778.963853 C664.896879,775.119116 668.424346,766.909798 675.508041,766.952559 C683.48456,767.002005 679.628445,815.752789 690.691496,815.824958 C697.334264,815.863709 706.544574,755.054857 748.125167,755.311139 Z M385.246322,720.158215 C388.169904,772.3114 370.232667,793.96461 361.201742,812.685825 C362.660109,819.975724 375.234936,832.441383 387.171641,832.516218 C391.579609,832.544285 396.925587,830.416785 398.273037,828.676831 C397.404863,825.674006 396.527104,821.781156 396.562707,816.157709 C396.758525,785.942379 416.831963,760.592774 434.080413,760.701021 C447.789069,760.783873 455.639606,778.5282 455.564291,790.204064 C455.472544,803.991395 443.449569,815.1688 425.702673,825.849071 C428.790578,828.865257 434.502176,831.084965 439.385311,831.117038 C464.610279,831.270725 478.00809,801.56321 487.953746,774.416184 C489.751716,769.237752 492.912197,761.934486 499.092115,761.973242 C509.706019,762.038727 513.703179,830.264437 531.343266,830.371344 C538.887066,830.419457 545.164209,815.335842 545.239524,803.710762 C545.295667,795.067117 542.207762,794.181104 542.288554,781.660649 C542.377563,767.867973 549.977507,756.269616 560.172387,756.333762 C566.357783,756.36984 568.548757,762.400879 568.504915,769.720179 C568.322814,797.353643 547.622209,848.598098 517.588051,848.415996 C494.990884,848.273364 496.999734,810.300402 489.050604,810.252289 C480.164831,810.197499 467.536599,848.53128 423.793786,848.265341 C416.685442,848.219907 409.204632,844.725299 403.071271,837.761474 C392.424503,844.622397 383.53873,847.583793 373.36576,847.524992 C357.01698,847.423429 350.033247,830.975385 343.415134,830.932624 C335.438616,830.884511 326.510393,847.663979 299.947561,847.500942 C278.723862,847.369978 275.362085,819.752547 267.859365,819.705774 C261.211126,819.664345 250.865616,847.197585 239.818995,847.130767 C221.217618,847.015837 217.580599,799.098948 201.190738,798.996045 C188.370796,798.917199 147.532394,847.315182 136.539177,846.131163 C132.120255,845.656747 130.278467,842.41739 130.775544,838.108931 C131.436945,832.140699 136.810311,816.185777 138.9917,808.637955 C142.654736,795.534843 146.028838,781.174211 147.892535,776.595809 C149.739801,771.97731 154.674972,768.707213 158.61188,769.088076 C160.59882,769.284526 161.169843,772.90208 161.766884,775.890205 C163.929102,786.577153 166.981404,797.472585 170.500658,797.497975 C176.71344,797.536731 197.479775,759.241701 209.411002,759.315203 C224.030282,759.404738 225.388686,819.85411 245.274522,819.975724 C251.922762,820.015814 256.857932,812.288922 261.322043,802.796681 C261.880742,786.805675 266.442078,764.008536 279.7098,764.091387 C289.005011,764.148855 293.302061,784.44698 286.533318,802.119145 C286.396382,823.243149 300.498044,828.513795 309.805579,828.568584 C316.431909,828.610013 327.845518,826.584076 336.907939,812.619001 C331.849525,801.468331 328.33438,778.97722 327.877014,770.794624 C325.508022,728.934164 342.278566,689.680958 360.367802,688.706742 C373.625939,687.999805 384.154943,700.310444 385.246322,720.158215 Z M121.065417,713.038037 C124.958506,726.874814 125.289891,744.979959 123.778118,770.876143 C121.80761,806.252539 103.385619,848.884082 58.289879,847.718769 C19.3685796,846.648334 2.29814656,821.936177 0.749401216,784.376151 C0.0181633198,766.670587 1.42723401,748.990406 9.10386229,724.013648 C13.1735981,710.639253 16.7585808,705.896474 29.1389582,703.404143 C38.868256,701.729668 37.9302449,711.638857 35.6530004,723.317393 C30.6425147,749.170815 28.3077571,761.653853 29.9085381,791.023259 C31.4435899,822.115253 45.9902938,834.292256 61.9104652,834.391146 C85.7907217,834.988503 96.5182828,815.629849 101.142609,787.578097 C104.802906,765.172516 102.227142,754.365286 100.040274,747.454918 C98.8064819,743.52599 95.1735718,734.681891 94.2163896,728.165747 C92.0966213,713.735624 99.8759518,704.286145 106.987035,702.147956 C114.963552,700.029811 118.044611,703.952055 121.065417,713.038037 Z M427.340427,781.391839 C423.317249,781.367981 414.037101,785.610961 413.948093,799.426354 C413.878255,810.252289 417.786407,815.412016 419.577528,817.622374 C432.39884,813.80837 436.030381,803.442151 436.086524,794.80385 C436.134452,787.499251 432.167418,781.420106 427.340427,781.391839 Z M609.068099,781.241772 C592.266061,781.139466 593.427278,807.874889 596.052339,814.380338 C608.44641,812.304955 616.442099,804.985655 618.702911,798.540341 C620.962354,792.049592 618.367418,781.297158 609.068099,781.241772 Z M360.556774,714.58422 C351.743577,715.047934 347.502671,742.065337 349.117146,770.500624 C350.144165,789.054784 352.954091,791.929317 355.592846,791.768952 C360.465026,791.515041 372.364759,758.454579 370.851617,731.721828 C370.16009,719.64906 367.202274,714.179294 360.556774,714.58422 Z M285.45974,694.206771 C292.981631,694.252683 298.516581,698.999466 299.09445,705.928547 C299.917436,715.877825 292.774857,726.622242 283.079794,726.565231 C274.628108,726.509984 270.368031,720.625948 269.876431,713.50443 C269.106851,702.697207 277.069675,694.155125 285.45974,694.206771 Z M373.229964,526.459498 C383.374837,529.787375 394.953044,539.052737 397.792177,543.814374 C401.808545,542.387547 406.524368,541.66928 411.956171,541.663734 C419.511127,541.6568 428.017509,543.073921 438.169266,546.166073 C438.64429,543.062828 439.11243,539.253796 443.839269,539.251023 C450.920578,539.245476 449.035625,547.102038 451.402486,551.596058 C452.586606,553.974103 458.505825,555.399543 458.511335,560.155633 C458.514086,564.687091 454.71389,566.356576 452.362174,566.359349 C451.413502,566.359349 450.233513,566.122238 449.520288,565.8879 C444.809972,567.557384 444.602062,601.788753 424.762558,601.808165 C410.122163,601.822031 396.654872,589.704402 390.730145,574.504327 C389.069624,569.989507 385.535166,567.131694 382.222386,567.134467 C378.451105,567.13724 376.327951,567.85412 371.855835,572.862574 C359.116916,586.884027 337.86886,599.023842 311.659896,599.047414 C303.62303,599.055734 297.252193,598.35272 295.597181,598.355493 C294.648508,598.355493 294.648508,598.589831 294.648508,598.821396 C294.648508,600.493654 302.682619,606.915069 320.16077,606.898429 C361.719224,606.862377 371.864097,583.301013 378.467627,583.295466 C379.413545,583.29408 382.236155,583.29408 383.893922,587.101725 C393.595438,609.899064 414.741605,615.114124 427.966564,615.100257 C439.294179,615.087778 438.70625,614.147653 442.257231,614.142107 C445.794443,614.139334 446.036774,616.273334 446.036774,617.705707 C446.042282,622.941566 434.46132,629.385167 413.933375,629.403193 C401.884273,629.414286 394.556502,622.987325 392.422334,615.851803 C380.630709,623.4768 362.689926,630.39185 344.972198,630.410015 C296.57339,630.454247 284.270942,609.280634 269.155523,602.419662 C257.569054,597.19351 239.87611,607.443369 215.053666,579.640349 C218.363693,580.347522 222.857838,580.580474 226.399181,580.579087 C248.107115,580.558288 259.670177,569.863325 259.653655,552.721989 C259.653655,550.578282 259.4127,548.225196 259.177253,546.092582 C265.797306,548.700806 280.918233,560.086302 284.484359,580.290672 C284.958007,582.668716 294.634739,584.80133 300.770129,584.794398 C309.279265,584.788851 320.13874,581.203064 321.77723,567.185772 C350.113479,564.785541 369.232874,547.886862 373.229964,526.459498 Z M543.989712,546.026378 C549.454921,546.020958 557.042648,551.137649 557.053725,563.700008 C557.075813,585.796785 523.940478,613.046897 479.584537,613.084928 C465.882132,613.098471 458.519646,603.816495 458.511336,594.504659 C458.501682,581.25148 465.842059,569.135644 471.47309,562.607452 C474.072346,559.571367 476.682656,557.243748 479.05529,557.239676 C480.953949,557.236962 486.656836,561.189165 499.459658,561.182379 C523.419522,561.160663 537.829433,550.69384 543.989712,546.026378 Z M529.774641,566.514867 C528.409375,566.514867 520.347673,573.746094 501.61396,573.765096 L501.61396,573.765096 L498.528292,573.76781 C498.764589,575.85656 499.000885,577.258561 499.000885,579.124728 C499.006412,584.687942 497.587254,590.514455 495.701031,596.08174 L495.701031,596.08174 L521.552645,588.626572 C530.030283,583.26694 532.393243,576.529738 532.390484,571.403546 C532.386333,567.205687 530.965794,566.514867 529.774641,566.514867 Z M419.054002,558.054908 C413.867284,558.060458 409.614093,562.347871 409.61959,567.589277 C409.622355,572.829295 413.883806,577.098683 419.070524,577.093147 C424.26688,577.09175 428.518694,572.812656 428.513197,567.571251 C428.507679,562.329845 424.251734,558.052138 419.054002,558.054908 Z M198.566433,468.70919 C227.530375,468.682361 249.8026,493.090849 249.833358,527.889674 C249.850059,543.576622 241.255795,566.8578 206.307832,566.884725 C164.895676,566.919608 139.717285,532.13825 139.697698,509.563825 C139.678201,490.645432 152.365107,478.668263 160.257257,476.810015 C151.918434,510.47481 170.610296,543.646491 208.925055,543.611557 C228.081737,543.595433 237.396262,534.128175 237.379512,517.778814 C237.362761,499.557769 224.666086,481.373002 203.355604,481.390469 C192.585204,481.401218 185.164852,487.404583 185.170435,495.680036 C185.182998,509.522172 196.934681,518.277304 209.141413,518.266554 C217.272254,518.258492 222.54439,515.027048 222.538806,509.719687 C222.536015,508.80064 222.294532,507.649144 221.817151,506.95314 C220.855408,507.416695 218.941694,507.876218 216.546411,507.877562 C206.734963,507.885624 198.834437,502.352532 198.828853,496.827501 C198.826061,492.441874 201.927646,489.695482 206.233851,489.692795 C220.599967,489.679358 230.428166,503.946084 230.439332,514.327014 C230.447707,524.908146 222.56114,534.141611 209.155371,534.152361 C180.666019,534.175202 168.675644,511.380421 168.661686,496.154339 C168.644936,479.804979 182.757006,468.722671 198.566433,468.70919 Z M350.613896,486.034295 C355.032046,486.030454 357.363096,489.771705 357.829306,493.709122 C359.444777,492.192364 360.83663,491.534632 362.934574,491.532067 C367.58583,491.526939 370.380378,495.018175 370.385799,498.764554 C370.385799,501.181366 368.993946,503.38791 367.133173,504.704656 C369.929077,506.02653 371.559456,508.007418 371.56217,510.869129 C371.564877,514.389854 368.775749,517.036167 365.052847,517.041296 C361.565761,517.041296 359.466461,513.070544 355.755756,513.075672 C353.665944,513.075672 351.334895,513.969316 350.406541,515.28478 C351.809236,518.365735 352.508551,521.424893 352.511261,524.282757 C352.524814,541.450458 329.520612,555.312831 305.579925,555.334657 C281.641949,555.351294 273.026554,541.299167 273.019778,535.575745 C273.019778,534.257717 273.948132,533.592292 275.577156,533.592292 C279.529097,533.589728 280.462872,534.910321 291.146395,534.900063 C316.718816,534.878267 307.625014,502.118602 331.56028,502.09937 C334.819683,502.087831 342.035093,504.287964 344.582984,508.685665 C346.439692,506.490661 347.143072,504.2854 347.140361,502.301947 C347.137651,498.567107 344.569431,495.696421 344.566721,492.205186 C344.56401,488.46137 347.124098,486.036865 350.613896,486.034295 Z M509.386854,520.68447 C523.61989,520.673657 534.008623,524.602787 534.014151,531.353562 L534.014151,531.353562 L534.019703,536.713194 C534.022442,539.282397 533.58025,541.869244 531.6581,543.470755 C525.544804,548.603733 516.296095,551.172936 506.095292,551.183824 C493.291088,551.193295 482.842935,546.775568 482.840171,542.345626 L482.840171,542.345626 L482.830497,531.638577 C482.827735,528.367695 492.069534,520.699444 509.386854,520.68447 Z M586.333759,439.834069 C605.385844,439.816597 626.585607,452.514682 626.613059,481.155063 C626.639094,511.651205 582.485491,549.552878 575.894337,549.559613 C570.478509,549.562305 564.585419,541.95746 564.582676,536.870955 C564.579934,535.261641 565.286226,533.172902 569.995761,531.329262 C592.53131,522.515076 605.443444,502.18656 605.432473,491.787301 C605.432473,489.473662 604.258518,487.189649 601.196086,487.192343 C597.209302,487.195036 580.112895,525.535736 561.042982,525.553244 C547.853816,525.565364 534.428762,513.816707 534.423276,508.261547 C534.415047,499.016416 572.535673,481.897098 572.524702,468.952567 C572.519216,464.093654 570.168563,463.868754 568.285572,463.871448 C563.34152,463.874141 536.058036,499.701888 518.456938,499.720743 C514.220552,499.723436 510.686343,491.870797 510.680836,485.884692 C510.675372,482.651253 512.784651,480.337613 520.326215,478.7081 C560.757722,469.656893 551.784371,439.863732 586.333759,439.834069 Z M441.354051,393.633839 C451.72961,393.625508 460.481622,397.191302 460.484375,401.733893 C460.489878,407.955571 445.139115,404.144533 443.961356,411.543661 C454.829482,412.969143 457.439538,416.792722 457.442289,419.907045 C457.447793,425.16586 452.71612,426.832406 448.222475,426.836586 C444.920348,426.839374 441.146292,426.125936 437.127328,426.13151 C431.934733,426.134297 426.749018,427.335435 422.504409,432.360155 C425.57126,432.833922 430.062153,434.981202 430.067656,439.767644 C430.078663,453.630907 392.068428,442.181069 392.10145,477.802787 C392.116584,496.674048 411.490439,517.221609 440.751413,517.195133 C455.8669,517.182593 465.547636,512.153693 465.542132,506.407176 C465.536629,501.870159 457.517963,504.985875 457.515212,501.156721 C457.51246,499.484602 460.335779,496.361919 460.333027,493.729724 C460.330275,492.568995 459.390545,490.410567 457.504205,490.413354 C453.245837,490.416141 445.223044,497.338715 428.932549,497.352649 C416.186339,497.363797 403.674029,489.98557 403.665774,479.940312 C403.663022,477.791639 404.608256,476.587713 406.019915,476.587713 C407.441206,476.584926 409.328922,477.547789 410.979986,477.545001 C412.401276,477.545001 412.633801,476.582139 412.631049,473.952732 C412.628297,471.321931 412.622793,463.903294 417.097176,463.9019 C421.585317,463.896327 430.102053,480.630062 462.68992,480.6008 C473.50301,480.591046 494.519674,478.424257 502.30719,471.238324 C502.092552,497.526828 481.811988,532.195438 439.349385,532.234527 C395.221959,532.276257 371.592489,496.444131 371.562168,463.462969 C371.530573,426.903471 400.985547,393.671491 441.354051,393.633839 Z M220.80419,439.834069 C232.294214,439.823134 240.740469,443.121225 248.482527,454.894625 C255.534062,465.482581 256.723676,483.15161 260.468906,486.453821 C262.349043,488.10218 265.399648,488.571962 267.512238,488.569214 C269.860015,488.565094 271.969869,488.326082 273.602511,488.323334 C290.490918,488.309599 301.994615,507.374238 302.002834,515.866031 C302.011023,523.643535 295.219289,526.45124 286.782606,526.459499 C276.691403,526.467723 265.19591,520.610556 259.323049,514.013001 C254.868152,509.305564 252.514905,499.871459 250.625198,488.342566 C248.739592,476.31779 239.351219,466.187254 220.589513,461.5224 C205.575773,457.755901 203.464551,454.93446 203.460444,450.923455 C203.454979,444.319032 212.60543,439.840991 220.80419,439.834069 Z M274.317646,497.02254 C271.746987,497.02254 268.463928,498.914038 268.469384,502.448393 C268.472132,506.697037 279.024139,514.234156 286.066103,514.225928 C289.572043,514.223167 290.743881,512.099532 290.743881,510.444305 C290.735677,504.320653 280.185038,497.017052 274.317646,497.02254 Z M137.265091,266.583207 C140.378926,266.580465 141.811039,269.646238 141.816617,272.707892 C141.824984,284.008555 127.272372,316.519757 127.280738,325.695109 C127.280738,327.11061 127.75625,328.285846 128.954094,328.285846 C134.937733,328.280354 146.865966,302.846654 150.678427,290.126372 C152.825899,283.528027 155.695703,279.991335 158.329843,279.988589 C160.719952,279.985843 162.87858,282.57658 162.884173,287.996943 C162.895313,300.708988 150.95453,330.626707 140.455621,350.65789 C132.341243,366.203682 119.689284,388.571607 119.700439,401.055744 C119.706017,407.41108 120.8941,413.997069 130.235605,422.002677 C114.927194,421.075944 108.705102,419.667308 102.959916,407.901219 C77.4175443,458.084893 150.119247,453.072293 125.27829,497.584356 C120.723975,489.597967 84.8500303,481.382299 84.8054072,434.758656 C84.7705457,394.498586 120.615207,370.914236 120.601263,354.197328 C120.598474,350.907765 119.410391,348.079511 116.296556,345.49152 C108.389954,338.901412 108.143134,333.49615 101.937775,333.501641 C97.386249,333.507134 91.890672,343.868706 97.6414357,353.038567 C99.5630052,356.098848 101.23636,357.982521 101.239149,360.810776 C101.244727,367.398138 90.7318732,385.061002 83.3328551,385.069239 C75.9115248,385.074731 70.166339,366.969782 70.1383249,337.755007 C70.116138,311.855882 76.0593376,285.717864 83.4778789,285.709627 C85.6267457,285.709627 86.344894,287.119636 86.3476829,289.007427 C86.3504718,292.070455 85.4022373,298.188272 85.4106042,308.538861 C85.418971,319.61848 88.0531109,320.561689 90.2089497,320.561689 C98.3316945,320.553452 96.6095336,271.568353 109.764894,271.557369 C112.87594,271.554623 113.836724,274.620397 113.842302,278.386369 C113.850669,289.455005 108.356486,305.70786 108.364853,314.64844 C108.370431,319.126968 109.569669,320.542468 111.722719,320.539722 C117.470694,320.534231 127.460624,266.590075 137.265091,266.583207 Z M318.935057,386.41562 C321.047852,398.342776 325.931992,404.541845 336.419927,408.438174 C357.147312,415.987312 359.958035,427.455525 359.968946,439.631553 C359.990623,460.293335 345.339559,486.002149 307.618842,486.034298 C277.339073,486.059684 255.651697,459.462422 255.629944,436.97022 C255.62454,430.763122 257.251229,423.887012 261.21204,423.884335 C264.709829,423.881659 265.877569,426.624611 268.665208,429.378267 C279.162648,439.705144 290.571196,442.440067 307.106938,442.425349 C322.013274,442.411968 332.950653,436.436349 332.945222,430.237278 C332.938433,419.915754 311.271424,419.70836 311.257846,404.097621 C311.25513,400.193264 313.81058,393.541941 318.935057,386.41562 Z M593.640807,449.537092 C590.349344,449.53981 586.821993,452.09047 586.828831,458.332449 C586.834337,465.241047 592.251536,469.634 595.311225,471.011679 C596.958328,471.938212 599.550355,472.859359 602.116324,472.856677 C608.952967,472.851278 614.366052,470.994172 614.360575,465.445746 C614.35508,458.306861 603.751084,449.524996 593.640807,449.537092 Z M343.433156,440.5695 C341.564772,440.5695 339.487281,444.233021 333.895707,446.763226 C325.908909,450.373217 322.722066,449.759064 322.730213,457.799257 C322.732928,460.781715 322.033642,464.666002 322.033642,466.730574 C322.036357,469.486905 322.508885,471.097888 325.764978,471.095218 C334.150981,471.087184 347.408903,457.084751 347.399409,445.144216 C347.393967,441.924928 345.529657,440.566832 343.433156,440.5695 Z M438.324349,439.526553 C451.999284,439.514038 461.241112,448.341436 461.249377,457.433585 C461.254871,463.619034 456.772233,468.89039 450.143213,468.897367 C444.012264,468.902931 439.762151,463.880999 439.756647,458.165137 C439.753896,454.101887 441.404959,450.27134 441.402207,446.688824 C441.399455,444.29212 440.683994,441.896809 438.324349,439.526553 Z M646.048986,382.083776 C657.776151,382.072866 667.174283,397.284943 667.189363,415.086745 C667.205717,434.039384 658.310566,454.656164 642.42286,468.709212 C642.161801,437.108284 603.445763,447.210533 603.426602,424.26614 C603.415694,414.438289 610.450624,407.869097 618.902928,407.862271 C626.410773,407.85681 632.275721,409.957806 636.50324,414.180273 C632.275721,410.19671 630.158544,404.577675 630.153077,399.198909 C630.144876,390.289818 635.770634,382.09471 646.048986,382.083776 Z M155.394847,405.422246 C164.484137,403.864939 171.143195,410.176131 173.277562,417.435557 C175.166978,415.736934 178.0128,414.527265 181.088435,414.135818 C189.030039,413.125406 196.653759,419.597699 197.603284,428.319751 C198.32162,436.810042 192.57906,443.834883 184.063612,445.493938 C183.192526,445.664931 182.04484,445.786464 182.04484,445.786464 C182.752167,447.482261 183.211792,448.951952 183.466375,451.362811 C184.417276,460.334992 178.509581,467.373965 169.817989,468.542651 C161.259882,469.700033 154.917332,464.717215 153.022411,456.970247 C151.130242,458.185569 148.287172,459.056078 145.230804,459.403717 C136.737374,460.375974 129.215487,454.114242 128.219174,445.833098 C127.086625,436.429901 134.550715,429.296247 141.436833,428.234961 C142.390486,428.095057 143.785875,427.87743 143.785875,427.87743 C143.071667,426.194351 142.734517,424.515511 142.598281,423.041581 C141.769855,413.97613 147.190403,406.825518 155.394847,405.422246 Z M516.430663,424.158409 C534.103922,425.335859 545.449481,436.07644 545.460503,448.738564 C545.468743,458.070384 538.860361,465.94328 529.178249,465.950263 C520.255627,465.958607 514.342067,459.530702 514.333802,451.635511 C514.328308,444.701789 518.805443,438.492653 518.799939,431.794421 C518.797187,429.404683 518.088606,426.769702 516.430663,424.158409 Z M469.651905,398.860635 C494.455007,403.619209 507.926309,422.489076 507.942844,440.173132 C507.953827,452.36985 500.415346,463.586985 487.186199,463.598149 C475.140315,463.607886 466.441962,455.269584 466.428194,441.874514 C466.421324,431.840404 474.148301,421.321379 474.140046,411.037845 C474.137294,406.981562 472.956784,402.921099 469.651905,398.860635 Z M163.218177,428.100696 L162.353899,428.162889 C157.421875,428.756418 153.905882,433.346377 154.483854,438.408331 C155.049439,443.46746 159.521839,447.083749 164.448358,446.491633 C169.374878,445.895277 172.893624,441.32793 172.3129,436.263148 C171.740433,431.192713 167.283171,427.565121 162.353899,428.162889 L163.218177,428.100696 Z M485.019178,417.488044 C483.121831,417.489439 483.838668,420.361304 483.362612,423.467266 C483.130087,425.854217 481.957832,428.717721 481.957832,430.636478 C481.960583,433.98211 484.327108,436.610125 487.634738,436.607342 C491.411546,436.604551 493.776695,433.254738 493.773948,429.426978 C493.768439,424.418981 489.272043,417.485259 485.019178,417.488044 Z M531.953017,315.393533 C535.522599,315.387989 540.538334,327.04188 542.922682,327.039106 C546.730977,327.036332 551.960442,317.517345 555.542515,317.515957 C556.722198,317.513183 557.202399,318.22898 557.205174,320.370822 C557.213501,329.164301 552.697397,339.159098 552.705724,347.738948 C552.711275,353.67479 554.629302,360.574737 560.581844,360.569188 C565.580924,360.566414 569.865255,352.963155 569.859704,344.627452 C569.848601,335.108466 568.174839,327.734094 568.172063,323.920674 C568.170675,322.262966 568.884037,321.552718 569.837498,321.552718 C573.414019,321.787156 576.753217,331.535031 580.56845,331.532256 C584.858333,331.529482 591.234173,323.661267 593.850294,323.658492 C594.566431,323.658492 594.798204,324.611501 594.798204,324.845938 C594.803755,328.423535 589.33419,336.287588 589.336965,339.372727 C589.339741,341.984831 603.157299,342.448156 603.160075,344.831371 C603.162851,348.403419 588.681894,348.417291 581.778666,351.516302 C575.111375,354.372553 571.058817,357.945988 571.061593,362.708255 C571.067144,367.467749 575.834451,368.406885 582.508682,368.401336 C598.420525,368.387464 609.592817,359.817324 613.161012,359.81455 C613.877149,359.81455 614.346246,360.286199 614.349022,361.003383 C614.351798,363.383823 606.264723,371.238166 606.267499,374.806053 C606.273051,378.849749 621.048234,383.581498 620.813685,385.967487 C620.574973,386.681897 619.617348,386.919108 617.951913,386.919108 C615.324689,386.921883 611.28601,386.215796 608.181361,386.218571 C606.278602,386.221346 604.610392,386.455782 603.891479,387.406017 C602.24825,389.31897 604.38417,401.921708 601.067179,401.924483 C597.968082,401.927257 589.843535,373.869691 571.555672,373.883562 C568.932612,373.886337 567.034016,376.026791 567.035404,379.600226 C567.043731,389.106727 576.346573,400.042049 585.163663,405.269029 C589.159319,407.888068 595.834937,410.500171 595.837713,411.930378 C595.840489,414.774144 580.642007,412.181461 580.644783,416.932631 C580.650334,421.220476 582.561421,427.651549 582.566972,431.445548 C582.566972,432.637156 582.329648,434.05904 580.898761,434.05904 C578.045316,434.061813 571.112944,420.994362 567.783462,420.997136 C564.928629,420.99991 558.741538,428.844543 556.108763,428.847317 C555.406504,428.847317 554.92908,428.13707 554.926304,427.433758 C554.920753,421.958467 563.723964,409.579069 563.714249,397.445204 C563.708698,391.729929 562.982846,379.361626 556.065739,379.36995 C550.356073,379.375499 543.926107,388.414513 541.075437,397.4674 C539.418329,402.697155 540.628545,422.919799 536.811923,422.925348 C533.23679,422.928122 534.176373,409.368214 529.409066,409.369601 C525.896386,409.375149 518.278409,415.796512 515.656737,415.799287 C515.179312,415.799287 514.700499,415.562075 514.700499,415.089039 C514.697724,412.241111 521.598176,402.948239 521.5954,401.046383 C521.592624,397.484046 505.872307,397.026269 505.869529,394.167244 C505.866755,392.495664 512.059397,391.305444 517.771839,390.342725 C529.875387,388.188399 547.733013,379.375499 547.723298,367.015521 C547.70942,353.217013 534.359571,347.272848 525.593832,341.567283 C521.063848,338.712419 516.060604,336.3514 516.056441,334.449544 C516.056441,332.539366 521.778598,332.533817 524.154618,332.533817 C527.725588,332.528268 531.254923,332.286894 531.252147,329.433418 C531.249371,327.284641 530.762231,323.016217 530.759455,319.684156 C530.75668,317.299554 530.992617,315.393533 531.953017,315.393533 Z M291.586858,278.133266 C303.936388,284.77656 313.02575,296.025337 313.033897,305.193485 C313.047475,321.03035 296.295838,328.382797 296.303985,338.260098 C296.314848,349.730987 314.242372,351.557391 314.25595,365.783274 C314.266813,377.473599 297.274838,391.033144 297.288417,406.17825 C297.299279,417.879279 305.696145,427.502356 318.505981,429.099957 C314.314337,430.024533 310.591148,430.716291 306.631695,430.721671 C283.104449,430.740376 258.872487,411.725702 258.852083,388.99667 C258.841256,377.751907 263.72947,367.893339 271.163629,360.77237 C277.696184,366.271652 284.213802,369.932489 288.410877,369.929813 C292.139498,369.924461 293.767545,368.098057 293.764829,365.344401 C293.75804,356.838576 259.51067,349.079369 259.494376,330.945115 C259.480798,316.256276 294.882329,308.428829 294.867393,290.294576 C294.864677,287.309442 293.68879,282.044313 291.586858,278.133266 Z M201.967078,278.133266 C197.046653,286.619837 195.884886,297.696092 195.890353,304.541431 C195.927256,344.614159 244.014847,382.055967 244.036729,406.802281 C244.044916,416.938333 236.791389,428.270256 223.437901,428.284021 C211.708154,428.294998 205.378574,418.857227 205.373107,411.088179 C205.367639,404.950741 209.591004,400.229106 210.983758,400.226357 C211.683552,400.226357 211.917272,400.699208 211.920005,402.347313 C211.922739,405.651769 214.510063,409.897805 219.906129,409.895056 C224.830655,409.892307 228.100004,406.345926 228.094537,401.867589 C228.079502,382.304763 188.435909,348.159165 188.393538,301.245222 C186.285956,306.434209 183.709567,313.030752 183.720501,322.944123 C183.739636,345.570857 200.171124,369.13642 200.190258,390.337728 C200.198459,399.067598 193.415106,406.847642 184.971109,406.855889 C175.128892,406.861388 171.603954,399.095089 171.598487,394.141153 C171.595753,390.835321 173.002175,387.771413 173.937055,387.771413 C175.11249,387.768664 174.64505,392.723975 180.042483,392.718477 C185.658602,392.712979 187.767551,388.696496 187.762084,381.400299 C187.744316,361.840222 176.483376,347.932361 176.468341,327.654761 C176.462874,324.597726 176.46014,321.294644 177.157201,318.230736 C171.064074,325.551675 170.369747,335.920028 170.377948,345.111752 L170.377948,345.111752 L170.398449,369.16391 C170.414851,385.408533 162.222343,392.734971 152.369191,392.745968 C146.047811,392.751466 139.705929,387.800279 139.697713,379.081406 C139.694996,377.904777 140.400256,373.66424 141.809412,373.661491 C143.686007,373.658742 145.097895,378.603057 150.489862,378.597559 C160.804987,378.590686 161.497947,368.464256 161.481545,348.183907 C161.461044,324.852021 171.040839,298.189561 201.967078,278.133266 Z M439.106408,278.133266 C441.747511,298.342039 468.8941,288.090609 468.919081,312.59 C468.921857,316.163435 467.972559,321.405675 467.975335,325.914084 C467.980886,331.159099 468.463863,335.678606 472.462294,335.673057 C476.506526,335.67167 477.462763,332.818194 477.459987,329.003385 C477.457211,325.189965 476.492646,320.441568 476.489871,317.825304 C476.481544,309.489601 482.439637,307.590521 486.016159,307.590521 C495.070573,307.58081 501.984904,316.8501 515.566525,316.837616 C512.481307,332.066329 481.028181,328.044828 481.044836,344.706523 C481.053162,353.042225 489.390052,354.921885 494.873497,354.921885 C499.880905,354.916336 501.54634,354.197765 501.543564,349.926567 C501.540788,347.541966 501.055036,344.927088 501.055036,343.256896 C501.053648,342.306661 501.775336,341.349492 502.966122,341.349492 C508.210855,341.343943 533.896025,360.834144 533.901578,366.789406 C533.907127,372.250824 506.806338,377.74831 498.945485,377.753859 C496.563913,377.756633 496.083713,376.089215 496.083713,375.14453 C496.080937,373.479886 500.12378,368.474858 500.121005,365.625543 C500.121005,363.485089 496.550035,362.060431 487.014032,362.067368 C482.4896,362.072916 479.153179,362.550114 479.155955,366.131872 C479.161506,372.537976 489.660685,380.382608 489.666237,386.325386 C489.669013,391.086266 486.811404,393.945291 479.180936,393.952237 C472.750969,393.957776 463.026217,388.963846 463.017891,380.642015 C463.012339,373.983441 469.872543,367.320705 469.869767,363.274234 C469.869767,362.08124 468.959329,360.180772 466.100333,360.182159 C457.286019,360.190482 454.922489,383.496879 423.731668,386.142275 C428.730749,381.628316 433.006753,376.623288 432.998426,366.405151 C432.992874,361.405672 431.80764,357.355039 431.802088,351.892234 C431.793761,344.7523 435.116304,341.173317 439.87806,341.167768 C448.681271,341.159445 452.976706,353.527746 458.708578,353.522198 C461.816001,353.519423 465.138544,350.672883 465.135769,346.387813 C465.116338,328.300073 430.351772,330.951018 430.329566,305.495844 C430.32124,298.593123 432.684769,290.029919 439.106408,278.133266 Z M534.327446,185.732808 C535.495557,185.732808 540.413062,191.894984 556.302374,191.878404 C564.481877,191.872877 571.957519,189.729932 583.878247,189.718879 C611.850297,189.694009 624.261142,209.36047 641.584045,234.448541 C652.046679,241.066663 677.064408,251.713687 677.090276,281.80749 C677.114785,308.347679 649.314275,323.067819 642.616013,351.503637 C653.311451,350.318178 659.608085,330.8714 670.588065,330.860347 C676.199901,330.85482 678.775733,335.361775 678.782562,342.475911 C678.790712,352.896345 672.959685,368.546337 661.749625,378.269036 C661.985153,377.315695 661.982429,376.132999 661.982429,374.70575 C661.976988,368.076575 659.399791,358.615009 651.915981,358.617773 C640.282513,358.628826 636.554903,371.422941 630.021375,382.083782 C623.22509,357.931091 614.09122,336.127212 597.73902,322.874387 C581.189412,309.386682 552.674149,316.750897 552.651004,292.113246 C552.645558,285.468873 556.845586,275.993491 556.837418,268.409593 C556.837418,265.805175 556.366361,263.432875 554.954553,261.535865 C577.405983,270.056524 569.470176,285.21603 583.281938,300.842535 C591.883486,310.797351 615.71405,320.25339 629.539427,361.229099 C629.769509,360.047785 629.999592,356.976368 629.996869,354.83895 C629.964195,319.765667 584.196822,285.444003 580.215985,271.225403 C606.787119,274.284385 611.467734,280.923232 624.122275,316.444171 C626.695388,323.800095 635.130842,342.042071 635.137649,351.039401 C638.867982,339.190338 643.539066,330.885216 651.1808,318.085576 C643.522729,314.073252 623.176078,305.552593 623.165186,291.570256 C623.152934,275.219765 643.231382,262.404925 647.394651,262.404925 C649.261179,262.402162 649.733597,264.060146 649.739043,267.145379 C649.744488,275.670184 645.782712,289.416258 645.788157,296.76942 C645.792242,303.395831 650.00861,309.797034 653.744384,309.791508 C657.719775,309.788744 668.684776,295.561854 668.673887,281.579517 C668.649378,256.451378 646.915426,248.897877 640.185851,248.903403 C633.875598,248.911693 622.435457,259.344562 595.572976,259.365286 C545.386385,259.412263 533.886341,208.962554 533.867281,186.918266 C533.867281,185.971834 534.09464,185.732808 534.327446,185.732808 Z M247.120176,214.607948 C252.812612,214.602566 263.473846,224.539085 266.329731,234.695128 C265.144842,234.46887 263.959954,234.235877 262.773684,234.238571 C255.186531,234.243958 250.946896,241.636416 244.790448,254.114302 C258.516096,245.080124 271.298528,237.69036 285.750575,237.676892 C298.06071,237.666117 307.788395,245.039721 307.799448,256.364766 C307.802205,261.210469 305.43519,266.531584 302.359728,271.1416 C300.452582,260.752564 291.686065,256.150628 276.529714,256.164096 C267.772864,256.172177 257.342255,257.785616 249.059084,260.798355 C275.829552,264.477749 279.866182,273.940203 279.873088,282.490888 C279.886897,297.045505 264.970837,304.214397 255.020813,309.080302 C255.964029,304.917415 256.672476,300.518842 256.669714,295.911518 C256.661427,287.125147 253.344292,277.199402 239.824412,267.516078 C237.711499,276.982571 230.1423,282.769671 230.147824,290.151354 C230.150586,292.928408 232.035635,293.848256 233.459435,293.848256 C233.464959,298.00845 231.577147,309.788706 231.579909,312.798752 C231.585433,319.024901 233.011994,320.183129 236.09298,320.871332 C237.994602,326.18706 238.065032,335.097335 239.365924,339.877045 C240.11442,342.598881 242.260476,343.279004 243.923187,343.27631 C245.820666,347.891714 248.202871,354.823574 252.709038,358.039677 C253.645348,358.734613 254.830236,360.350746 254.832998,361.736579 C254.83576,365.898119 248.451449,370.528338 244.424486,370.533725 C243.239598,370.533725 241.188829,369.819933 239.365924,365.556038 C237.87998,362.057112 226.41363,355.072727 225.696897,350.911187 C226.408106,350.213557 226.880404,348.827724 226.880404,347.211592 C226.874881,340.747063 216.449796,333.359993 216.438748,323.203949 C217.623637,322.737964 218.808525,320.887493 218.805763,318.805376 C218.800239,313.037131 212.624457,301.71478 212.620314,294.102798 C215.22624,294.100104 216.650039,293.864418 216.882045,290.164822 C217.347439,282.547453 218.996339,271.215673 226.32939,264.752492 C224.672203,264.522192 222.548242,264.291894 219.700643,264.294588 C205.488888,264.305362 183.467641,272.408918 175.196899,290.434178 C174.721839,287.659818 174.480165,285.127877 174.477373,282.819502 C174.463594,267.7989 183.68998,257.851608 190.560399,254.855029 C194.10954,253.23351 198.371272,252.766178 203.113587,252.763485 C210.681406,252.755404 219.693739,254.368843 228.92703,255.976894 C220.870341,245.582472 208.549159,237.973183 198.360224,237.983957 C193.630337,237.98665 189.83538,239.609516 188.656016,243.52729 C188.179574,241.461334 187.939282,237.990691 187.937901,235.676928 C187.929615,224.370738 191.714906,217.892741 201.658025,217.88466 C216.340698,217.871193 228.907696,234.957749 236.500372,250.882038 L236.500193,250.870763 L236.499884,248.834513 C236.512344,226.640556 237.191323,215.296005 246.271359,214.638306 L247.120176,214.607948 Z M529.504094,289.745173 C534.713535,289.739886 538.740516,293.59617 538.743284,298.134453 C538.748785,303.360034 534.730073,307.003109 529.520632,307.008409 C524.845916,307.011055 520.580514,303.374601 520.577746,298.150345 C520.572245,293.612061 524.829378,289.747832 529.504094,289.745173 Z M499.739991,273.642011 C508.722832,273.634078 516.068421,280.673914 516.076703,289.29758 C516.084959,297.923894 508.753152,304.976972 499.77031,304.984931 C490.776444,304.992863 483.441881,297.953028 483.433598,289.324065 C483.425344,280.703048 490.746125,273.64997 499.739991,273.642011 Z M470.623623,266.403537 C475.830309,266.398251 480.097089,270.477012 480.101226,275.477467 C480.10398,280.479245 475.849603,284.559331 470.640161,284.56199 C465.492737,284.567276 461.227335,280.493812 461.221819,275.493358 C461.219065,270.494227 465.476199,266.408845 470.623623,266.403537 Z M528.535248,259.309409 C534.684594,259.30412 539.65837,264.071503 539.663892,269.967167 C539.669395,275.88137 534.705266,280.655374 528.55592,280.663329 C522.456188,280.668617 517.478278,275.898586 517.472755,269.987031 C517.467252,264.088718 522.434138,259.314715 528.535248,259.309409 Z M64.3417755,251.944839 C71.6941514,262.696605 78.540205,265.966746 87.3430879,265.959925 C93.9395451,265.954468 101.280511,264.547912 110.817919,262.430574 C98.3595282,272.732132 87.8422794,278.127797 80.0220901,278.133266 C69.9940486,278.14144 64.3588911,269.718473 64.3417755,251.944839 Z M442.984642,247.345919 C450.30818,247.33799 456.468551,253.244247 456.474071,260.276137 C456.479576,267.326566 450.332987,273.224878 443.009449,273.232831 C435.674886,273.238121 429.533809,267.350403 429.52828,260.299974 C429.520028,253.268084 435.650079,247.351232 442.984642,247.345919 Z M501.60464,248.204054 C506.807191,248.198767 511.064325,252.284149 511.069848,257.277983 C511.07535,262.277113 506.823729,266.373089 501.621178,266.378389 C496.414493,266.381035 492.15736,262.294329 492.151836,257.293874 C492.146334,252.302689 496.397955,248.209362 501.60464,248.204054 Z M132.809438,227.782357 C131.828171,230.594105 131.100777,233.632321 131.10363,238.550494 C131.112187,245.56554 133.565356,252.587408 140.414262,258.891672 C138.456005,260.300957 135.28828,261.235478 130.882559,261.240954 C122.31073,261.249121 115.46753,255.867098 115.460382,247.448225 C115.448988,235.753752 127.172854,229.188913 132.809438,227.782357 Z M473.667977,231.879744 C481.712292,231.874454 488.112463,237.996568 488.120748,245.715755 C488.129,253.446861 481.737098,259.574272 473.69554,259.579585 C465.706351,259.587515 459.310315,253.470698 459.30203,245.740916 C459.293777,238.023054 465.678788,231.887697 473.667977,231.879744 Z M153.086591,208.351142 C165.32819,211.842294 180.256865,222.83417 180.273999,238.508202 C180.282537,248.562829 174.664495,258.393716 162.678197,258.403283 C150.205544,258.41418 142.117218,247.895703 142.105764,235.263982 C142.092971,224.741412 147.71244,214.43576 153.086591,208.351142 Z M72.8879318,231.111161 C78.7584226,238.826075 88.5454261,241.146688 97.5921996,241.138503 C100.527445,241.135774 103.709434,240.898392 106.390804,240.434542 C100.048221,248.164463 92.942589,251.684265 86.8424701,251.689738 C78.7698324,251.697908 72.6611563,245.613289 72.6497443,234.61732 C72.6497443,233.452239 72.6468939,232.287157 72.8879318,231.111161 Z M526.60996,231.833392 C532.053688,231.828105 536.557512,236.137289 536.561649,241.350952 C536.564403,246.584478 532.071604,250.906906 526.626497,250.909564 C521.24892,250.914851 516.739584,246.601694 516.736818,241.369492 C516.731315,236.15318 521.229626,231.838699 526.60996,231.833392 Z M588.049685,202.512991 C587.111656,202.512991 585.993917,203.223163 585.99664,206.072134 C585.999363,208.677933 586.474504,210.340062 586.477227,213.410097 C586.47995,216.493949 585.772003,218.627223 582.972892,218.629986 C576.659917,218.635512 571.037188,203.715032 565.66088,203.717796 C564.492769,203.720559 563.328742,204.433492 563.331464,205.616188 C563.334187,208.462395 568.007995,213.664322 568.010718,216.274266 C568.016164,221.965298 552.823906,218.8925 552.82935,223.635718 C552.832075,225.771754 554.925962,226.470872 557.730519,226.46949 C562.646663,226.463963 570.355109,224.336216 574.326416,224.333453 C576.665363,224.33069 580.173781,224.800452 580.175142,227.871869 C580.177866,231.190601 571.769641,235.45853 571.772364,238.543763 C571.775086,239.965485 573.178727,240.661838 574.341392,240.661838 C580.654368,240.657693 591.811331,229.521563 599.755306,229.513273 C601.1535,229.513273 604.648305,230.219298 604.651027,232.353953 C604.65375,235.428133 596.726112,240.88014 596.728835,245.381568 C596.731558,246.56979 597.439504,247.991512 598.834976,247.991512 C603.02275,247.988749 608.61825,236.852619 616.569032,236.844329 C619.609117,236.841565 624.052842,238.020116 626.393149,238.017353 C628.261039,238.017353 628.962178,236.833275 628.962178,236.117578 C628.959455,231.143625 616.562225,230.684916 615.385945,216.703961 C615.147694,214.57345 614.446554,210.787719 611.869357,210.790482 C607.666606,210.796008 610.947666,223.823622 606.273858,223.826386 C595.541664,223.837439 592.01963,202.507467 588.049685,202.512991 Z M446.966144,219.18526 C452.181098,219.179973 456.438231,223.269328 456.443755,228.259189 C456.449257,233.253022 452.197636,237.348999 446.982682,237.354306 C441.796669,237.359593 437.531266,233.268913 437.525751,228.277728 C437.522997,223.286543 441.777375,219.187919 446.966144,219.18526 Z M500.619257,207.787238 C508.899237,207.779307 515.762469,214.351674 515.770753,222.30923 C515.779007,230.254868 508.9268,236.841802 500.64682,236.849762 C492.368218,236.857693 485.503607,230.277381 485.495328,222.338364 C485.488448,214.376835 492.340655,207.795198 500.619257,207.787238 Z M121.737373,170.466759 C123.691351,170.464162 125.643902,170.544654 127.120083,170.694723 C131.528655,171.159937 135.035831,171.229514 136.169709,172.326383 C138.159343,174.228167 136.971268,177.839374 140.094779,181.911703 C143.216865,186.003131 146.956522,185.419226 146.962228,189.869455 C146.965079,193.382436 140.124731,214.210657 122.520391,222.655452 C114.213846,226.62546 107.603126,228.27622 101.983658,228.278974 C92.436266,228.287134 85.8341036,224.323947 79.9707443,224.329404 C78.9909033,224.329404 77.7700238,224.798711 75.8060622,224.80144 C73.6181777,224.80144 71.1678614,222.464455 71.1650088,220.356667 C71.1650088,219.418053 71.4402774,218.497175 71.8966803,217.778207 C75.3054444,212.390729 72.1619655,190.954046 93.3690409,177.983986 C104.104508,171.431425 113.670441,170.472347 121.737373,170.466759 Z M667.192228,151.933831 C673.616272,154.19603 672.959547,163.933382 672.972452,176.374821 C672.990515,198.082706 670.806159,225.640651 665.03884,226.145855 C656.403352,226.837045 624.536024,197.901994 621.629142,176.419669 C630.274955,177.315316 657.017498,172.995372 667.192228,151.933831 Z M469.391549,207.587276 C474.361191,207.58199 478.385415,211.438273 478.388183,216.200359 C478.393684,220.978335 474.377729,224.847862 469.408087,224.850521 C464.488059,224.855807 460.469347,220.992903 460.463823,216.21625 C460.458322,211.456813 464.474277,207.592584 469.391549,207.587276 Z M234.334193,127.982521 C252.431199,127.967607 262.053743,144.25783 262.071099,162.422943 C262.073768,164.979364 261.841482,167.773369 261.387588,170.33522 C269.158514,157.289738 279.919797,147.273131 291.594207,147.26227 C306.703525,147.245978 313.580013,160.511398 313.596056,175.415479 C313.601373,181.925323 311.787133,191.487123 308.80879,191.489838 C305.827777,191.492553 306.284341,186.132624 305.817097,181.235646 C305.359199,174.953884 304.20978,173.556881 302.144564,173.559596 C298.251759,173.562312 295.752674,182.877023 295.758014,191.499341 C295.763354,196.845695 296.683156,202.903449 300.796233,202.900733 C303.085726,202.898018 305.149607,201.730455 306.523302,200.333452 C305.618185,211.041093 297.83124,220.372096 286.849685,220.382979 C266.702148,220.401963 259.122125,196.419399 256.817947,182.448011 C244.697653,195.498925 233.494491,205.06344 213.338945,205.081089 C194.573114,205.094666 186.081298,191.134139 186.07061,177.864646 C186.067948,173.897646 187.433634,163.659746 192.247577,163.654315 C197.962631,163.648884 192.949776,182.738544 204.166289,182.727683 C206.91902,182.724968 211.943889,180.387126 214.687275,172.711076 C216.286583,168.047611 217.201045,163.166925 217.198375,158.969128 C217.193035,152.675147 215.81133,148.731227 211.244359,148.733942 C207.340874,148.739373 202.532272,151.760103 200.932964,153.391977 C206.421072,136.618437 219.68945,127.996118 234.334193,127.982521 Z M96.3156961,188.507904 C93.6286201,188.510648 89.9674084,194.370163 89.9730997,199.040039 C89.9816708,207.70721 98.7945379,217.288437 106.858618,217.282984 C111.264338,217.277523 115.916802,214.928259 115.913952,213.288414 C115.913952,212.821836 115.426168,212.587182 114.688791,212.123332 C107.34212,208.862741 99.5105207,202.311545 98.0286356,190.85309 C97.7833188,189.210516 97.2926851,188.505192 96.3156961,188.507904 Z M290.228522,162.39579 C285.41992,162.401221 277.432727,185.455165 277.442055,198.026835 C277.447412,202.922455 278.596831,205.019996 279.973196,205.017286 C285.68825,205.011851 292.082811,182.647583 292.069502,168.677552 C292.066791,165.645961 291.604887,162.39579 290.228522,162.39579 Z M494.756559,147.161708 C497.483597,150.933534 499.082297,158.750347 499.087614,162.301437 C499.1074,188.088919 480.968107,198.038593 464.239898,198.053769 C453.34496,198.064806 447.890885,194.283323 446.526044,194.283323 C442.232017,194.288841 442.467198,203.286591 439.516871,203.053439 C434.299297,202.112552 429.540194,190.047951 429.52828,177.274235 C429.523018,169.693334 431.329152,161.651646 435.38932,155.731782 C441.295259,161.643368 446.496977,164.237016 452.852138,164.231498 C455.358529,164.228738 458.308856,163.521004 459.900949,163.518244 C461.933015,163.518244 463.295212,164.453613 463.295212,166.109133 C463.297855,168.715197 461.03325,172.979541 458.316783,175.352452 C461.035893,176.53339 463.98622,177.007973 467.1638,177.005213 C480.041919,176.991417 494.777699,168.446176 494.756559,147.161708 Z M512.193037,185.732808 C517.157166,185.730162 521.192416,189.595714 521.195184,194.36707 C521.200685,199.126507 517.172326,202.996033 512.209575,202.998692 C507.237177,203.003978 503.215708,199.142398 503.210193,194.382962 C503.207439,189.610281 507.220639,185.738107 512.193037,185.732808 Z M120.764664,178.431418 C117.103451,178.434193 114.414949,178.9035 114.417797,183.340087 C114.423507,190.364683 121.279544,202.761752 129.845668,202.756298 C133.760754,202.750838 135.716158,198.52844 135.713312,195.26512 C135.713312,193.625275 131.036596,190.914482 129.343624,188.71256 C126.643712,185.202308 126.640859,180.529703 124.440138,179.36735 C123.210701,178.662025 122.479029,178.428736 120.764664,178.431418 Z M164.070228,175.348217 C169.442953,175.342771 173.854379,179.554254 173.860087,184.693437 C173.862936,189.844899 169.460068,194.067297 164.087343,194.070035 C158.704634,194.075482 154.291782,189.863998 154.287492,184.712537 C154.281798,179.573354 158.684666,175.350956 164.070228,175.348217 Z M238.243019,138.919622 C231.146259,138.927768 221.340822,179.683873 221.348822,188.769145 C221.348822,190.403733 221.80673,192.267761 223.873281,192.265052 C231.652216,192.259616 240.531177,149.40597 240.523177,142.180654 C240.523177,140.316626 239.847666,138.919622 238.243019,138.919622 Z M272.146202,169.861407 C269.855374,169.864122 267.349614,172.663559 263.689095,178.95754 C264.156339,187.335485 265.538044,191.062184 267.820862,191.059472 C270.331962,191.056754 273.992481,182.89603 273.984496,174.752954 C273.979131,170.78867 273.061999,169.861407 272.146202,169.861407 Z M250.161731,155.676868 C243.283908,155.685017 239.8757,174.321227 239.881028,179.214132 C239.883711,181.991847 241.249396,184.325616 242.619087,184.325616 C245.140866,184.3229 248.347491,181.523464 254.300173,174.769246 C254.756736,171.743085 254.754067,168.943648 254.751396,165.446389 C254.746056,160.799215 252.909122,155.674156 250.161731,155.676868 Z M550.365269,116.432463 C558.363362,116.425426 556.307622,126.089918 563.627121,126.084282 C569.32864,126.078646 576.637495,120.99348 580.984487,120.987844 C587.783731,120.982208 597.61935,143.694258 597.630004,154.32534 C597.640639,166.651477 580.112959,174.160163 559.325369,174.18275 C528.998877,174.210888 510.696803,146.199501 510.680836,128.068187 C510.680836,126.618302 511.370075,126.135007 512.049999,125.650303 C514.945333,123.594538 527.809342,126.842337 544.436222,118.117663 C546.485309,116.925629 548.541049,116.432463 550.365269,116.432463 Z M151.318028,154.292172 C156.706442,154.289446 161.112163,158.503658 161.117879,163.651027 C161.123572,168.791574 156.723557,173.013972 151.337995,173.016703 C145.962418,173.019429 141.553844,168.807945 141.548128,163.668762 C141.542435,158.517301 145.94245,154.297631 151.318028,154.292172 Z M78.9039013,132.13516 C78.6571581,133.541717 78.6571581,134.706798 78.6600108,136.116083 C78.6714205,149.450401 86.5087249,159.503664 100.701449,163.473672 C100.701449,163.473672 93.6086525,168.615584 84.8043432,168.623779 C74.3027831,168.630591 65.9691399,161.158516 65.9577017,150.631854 C65.9491723,143.376697 69.8571271,135.888251 78.9039013,132.13516 Z M654.757022,116.432463 C663.832479,117.558947 667.390927,123.885192 667.398679,131.583266 C667.412856,148.097984 646.382154,166.889411 623.387722,166.91187 C614.762552,166.919749 608.775897,164.218301 608.770732,157.876227 C608.768156,155.158949 610.979606,149.963145 618.287453,149.95523 C638.448546,149.936763 656.98653,136.119537 656.973632,123.670184 C656.971053,120.053302 656.310455,118.470422 654.757022,116.432463 Z M461.442835,116.432463 C475.910404,116.418703 481.581162,124.452113 483.630404,124.452113 C485.892366,124.449354 488.158291,122.076442 489.98028,122.073683 C492.470816,122.070924 492.473458,126.096597 492.476123,128.94409 C492.484028,138.399869 488.419897,154.734332 478.212003,160.662472 C476.393977,156.639559 472.765855,152.142063 466.90748,149.316643 C465.324636,148.611667 464.641555,147.192059 464.638912,145.772451 C464.637591,143.163627 466.899553,139.844309 469.582989,138.419183 C467.763643,135.346814 460.998898,133.707849 457.83321,133.710608 C447.838035,133.721645 441.053472,141.055598 439.693917,147.687335 C438.788868,145.317182 438.100503,142.480725 438.097846,139.638749 C438.089933,129.232427 444.881102,116.449054 461.442835,116.432463 Z M107.7429,116.432463 C124.380235,116.418837 129.781486,133.49806 129.790093,144.721861 C129.795748,149.87878 128.820186,154.544563 127.602159,158.297692 C110.720933,158.311297 91.382259,150.846043 91.3651332,132.360264 C91.3580125,123.695822 98.2111969,116.440665 107.7429,116.432463 Z M93.0182174,0.931890167 C104.714301,0.920956951 135.043925,3.94944116 135.049494,10.7896383 C135.055063,18.5614653 109.499378,26.3648962 109.504947,33.9003805 C109.513301,42.8662877 145.335253,37.6392669 145.343606,45.4303311 C145.35196,53.4371267 119.345195,71.3744376 119.347979,77.0219282 C119.350763,77.9659254 120.545293,78.4331144 121.498967,78.4331144 C127.699937,78.4276177 143.930497,66.6324686 151.334351,66.6242242 C154.191197,66.6214758 155.15044,68.5080954 155.153224,71.814145 C155.161577,78.4056328 151.118556,89.4862573 151.124125,96.3113395 C151.126909,97.964364 151.607227,99.8509829 153.510399,99.8482352 C158.763264,99.8427385 167.109654,77.4478951 174.503762,77.4396507 C181.193403,77.434154 175.252778,111.139094 182.183275,111.136347 C188.143391,111.13085 189.311467,80.4942421 195.52636,80.4901202 C201.486476,80.4846235 204.371167,97.6813024 210.58606,97.673058 C213.196481,97.673058 213.437337,94.3738786 213.434552,88.9572342 L213.434552,88.9572342 L213.426199,80.9449423 C213.42063,75.7563956 213.6587,72.2318669 216.283045,72.2291185 C223.454396,72.2236225 243.753039,95.7575826 248.056406,95.7520865 C249.014257,95.7520865 249.250935,94.80809 249.250935,94.1004356 C249.246759,87.748039 235.61409,66.3164293 235.602952,55.0104545 C235.600168,51.2262233 237.035552,48.6360723 240.85721,48.6333242 C249.207777,48.6250796 266.886251,58.2807778 274.995962,58.2752814 C277.62866,58.2725332 279.302114,57.3257884 279.29933,54.7315152 C279.290977,45.0716948 250.143351,25.5335746 250.134998,17.5144122 C250.129429,9.73983701 282.597511,1.70143746 304.795148,1.68220026 C307.665917,1.67945209 313.399099,1.67395575 313.401884,4.73129575 C313.407453,10.6165035 285.853926,15.67726 279.222757,22.5847873 C278.354009,23.4889355 277.798511,24.4975142 277.84167,25.5102151 C278.274652,36.5839693 317.041161,62.2312733 317.055087,76.3747343 C317.057867,79.4403185 314.430738,81.798249 310.12737,81.8009974 C297.235366,81.8119901 270.003443,69.1154414 260.68528,69.1236858 C258.055367,69.1264335 257.352293,69.835462 257.355078,72.1920183 C257.363431,81.1455585 275.043298,109.39538 275.053044,121.887191 C275.055828,125.190492 273.869652,127.78614 270.536665,127.788887 C259.785903,127.79988 235.884182,99.5404397 227.539185,99.5486841 C219.893084,99.5541809 223.258092,123.349218 216.09231,123.357462 C210.371657,123.360211 205.335979,109.697679 199.12387,109.703176 C192.920115,109.708672 188.900761,156.846671 179.118988,156.857664 C167.656798,156.865908 172.146724,113.26343 164.51037,113.270301 C158.539116,113.27305 150.437758,128.128287 141.598521,128.136531 C136.827365,128.142027 135.394766,124.372911 135.389197,118.956266 C135.383628,112.116069 137.523478,102.698088 137.517909,96.5614229 C137.513732,93.2581216 137.272877,89.49725 134.164039,89.5027461 C125.319233,89.5082421 93.1184579,112.863572 80.7012023,112.874564 C78.0866034,112.877313 76.1695091,111.696973 76.1681169,109.101326 C76.1569795,97.5548865 116.943606,62.8812156 116.939429,54.8785423 C116.933861,47.5615375 70.1439591,54.2079886 70.1383869,47.1355711 C70.1300367,39.1246532 103.306761,25.1941755 103.301192,20.0028809 C103.295624,14.5889844 71.3008978,12.732595 71.2953291,6.59867783 C71.2925447,2.58909662 78.9233307,0.945690487 93.0182174,0.931890167 Z M535.311131,139.162835 C534.397025,139.162835 533.939307,139.648951 533.939307,140.368962 C533.944629,146.661661 544.916559,156.313472 561.82286,156.296608 C571.875363,156.285292 579.406424,151.43966 579.403764,148.537071 C579.401101,147.58598 578.029277,146.857515 575.058101,146.860334 C572.090916,146.865969 566.153885,146.627844 554.958418,144.707345 C545.358311,143.019335 538.052118,139.16002 535.311131,139.162835 Z M641.079319,116.898091 C645.898318,116.895456 647.451752,120.061216 647.454341,123.219063 C647.464655,133.187251 627.809331,141.341723 618.502921,141.34988 C615.403795,141.352276 610.971865,141.357552 608.529464,136.393903 C606.528321,132.319305 607.191498,125.750352 603.426615,122.818066 C607.191498,123.939273 611.17314,123.933997 614.276137,123.931359 C624.249594,123.923444 633.771472,116.90337 641.079319,116.898091 Z M275.744979,85.5975934 C282.436013,85.5920989 312.782344,109.131556 317.091281,115.02226 C318.033817,116.436194 318.512743,118.325561 318.51554,120.195691 C318.521096,127.276354 314.958392,135.524988 310.176098,135.530485 C304.442916,135.533233 274.558804,95.2615378 274.553234,87.0170256 C274.553234,86.3093719 275.021022,85.6003433 275.744979,85.5975934 Z M651.779474,6.70691886 C659.617465,6.70013096 661.463202,10.1884237 672.985947,10.1775313 C666.764146,13.9299649 664.47007,20.707764 664.472755,23.9673162 C664.483493,33.7827348 670.713348,40.5428337 670.73214,60.6297904 C670.7657,97.5101125 636.716944,110.623207 595.026178,110.657435 C583.561151,110.668138 571.339037,109.746368 559.353177,107.898744 C557.515497,107.665919 557.053725,107.200268 557.053725,106.032058 C557.048359,102.991716 573.411628,101.338793 573.400889,86.4025822 C573.39552,80.5628919 571.54039,74.9669189 571.537705,72.8674074 C571.537705,71.6937511 572.457216,70.991191 573.384781,70.9884676 C576.838653,70.9857448 583.769215,84.5263658 596.620892,84.5127501 C600.050601,84.5100273 608.581248,83.3336476 608.570509,72.5923742 C608.557085,56.0141337 569.443636,51.8423425 569.440951,48.1130553 C569.438267,45.0781589 591.27699,39.9124358 602.554088,39.6714413 C585.268622,17.2752948 560.665997,19.6307774 560.663312,15.6645804 C560.660628,13.3199902 579.081723,8.62944824 596.090664,8.61447115 C610.359864,8.60085562 623.722977,11.8604079 623.731031,22.8358676 C623.739085,28.9138297 618.909303,35.22734 618.917357,44.5621312 C618.922727,49.7033464 621.447691,54.1311091 628.141999,54.125663 C635.288681,54.1188552 636.891449,46.4152016 636.883395,38.2322823 C636.878026,31.4708218 635.718234,26.3255219 635.715549,23.0578004 C635.707495,13.2532742 642.334686,6.71510799 651.779474,6.70691886 Z M463.254818,1.22977351 C466.120663,1.22706542 471.863481,10.5063244 475.628033,10.2719724 C481.841072,10.2665538 493.539561,2.59253887 509.532643,2.57628323 C543.154843,2.54648123 567.538172,22.2754051 567.568834,55.9638565 C567.600776,90.7996851 540.397511,110.580085 511.544299,110.605845 C491.252451,110.61937 479.054526,98.3152074 474.524821,98.320626 C471.461429,98.323335 466.948419,109.01548 464.082575,109.018189 C462.880589,109.018189 462.402021,108.786546 461.929018,105.993287 C461.202818,100.661437 460.475227,91.5907927 456.642508,91.5935017 C453.298095,91.5962113 439.708984,106.716662 435.182062,106.719371 C434.231882,106.722081 433.996771,106.722081 433.993989,105.554384 C433.991207,100.914755 445.899765,84.6415079 445.8942,79.7675265 C445.888635,74.8935452 429.666007,77.6895141 429.663222,73.7461676 C429.65766,68.8627036 445.878897,63.7313414 445.873332,57.2345055 C445.867768,50.7254778 430.360209,49.8070343 430.354645,44.7027646 C430.351862,41.9135683 444.899501,37.947193 444.895328,33.7627214 C444.892545,29.591796 430.088928,13.3375145 430.084754,7.98670083 C430.07919,2.1875026 452.274182,18.1871126 458.017,18.181694 C460.524614,18.1793234 460.833806,11.9603149 460.870058,8.69133136 L460.874498,7.49767712 C460.868933,3.54213895 462.062571,1.22977351 463.254818,1.22977351 Z M509.308662,13.5000263 C494.738764,13.5122625 485.430334,19.3222978 485.435899,24.6676929 C485.438681,27.926948 488.304526,28.3861697 490.698758,28.3834604 C495.47192,28.3780419 506.929733,23.9565088 509.080508,23.9537995 C510.745758,23.9524449 511.705677,24.4116666 511.705677,25.5766539 C511.708459,28.1369166 506.69184,33.7098905 506.697405,36.9664363 C506.700187,41.3798416 532.922665,38.1016216 532.92823,42.7588614 C532.931012,47.1573656 513.639427,51.3635115 513.642209,54.1513531 C513.644991,57.1762561 529.174808,67.1504437 529.180373,72.2628413 C529.180373,73.1975404 528.710152,74.1281753 527.04351,74.1308849 C522.024108,74.1363035 512.465265,71.5841681 506.022679,71.5895867 C504.591148,71.5895867 503.874687,72.284515 503.874687,73.2178596 C503.87747,76.6925023 507.941126,83.6539782 507.9453,87.8438684 C507.9453,89.2391442 507.230229,89.6929473 506.277267,89.6929473 C502.451503,89.6983659 490.985343,81.8170916 485.736395,81.821155 C483.816557,81.8238646 482.390592,83.2150764 482.393365,85.3039253 C482.397547,89.49517 493.383748,97.6107965 510.104421,97.5945893 C522.996548,97.5837036 547.061295,89.2066327 547.030747,55.7511786 C547.007039,29.268038 532.900406,13.4783966 509.308662,13.5000263 Z M647.440992,48.9817246 C647.459786,69.7576257 632.548941,85.6455605 605.583776,90.1060003 C608.586617,90.3333792 611.354547,90.3306558 614.119792,90.327933 C645.632845,90.2993406 657.147539,75.8192493 657.136815,63.6823869 C657.128747,56.9045878 653.435939,50.8402412 647.440992,48.9817246 Z M91.8752005,60.3240265 C95.2081878,60.3212945 99.0298482,61.0138336 99.0298482,62.8977046 C99.0354143,67.6176879 80.9114279,83.4141739 74.4696026,83.419674 C72.0847211,83.4224183 71.3635483,80.6000466 71.3607586,78.0098958 C71.3579796,73.3064018 73.4992213,66.6943027 76.1263504,64.5685925 C79.2156979,61.7407248 86.3814804,60.3295391 91.8752005,60.3240265 Z M472.073551,30.4939839 C469.732184,30.4966931 469.273092,43.5079753 466.161007,43.5106846 C462.57731,43.5133939 458.039259,42.5868226 455.405743,42.5908865 C454.683717,42.5908865 454.210714,42.8238839 454.210714,43.2898789 C454.213496,46.0750112 463.544185,50.9422196 463.546968,53.499773 C463.546968,55.1253366 453.989515,61.635719 453.992296,63.49428 C453.992296,63.9575657 454.465301,64.1892085 455.664504,64.1864992 C457.342275,64.1864992 462.838853,64.4154328 465.70748,64.4127235 C466.906683,64.4100142 467.374122,65.3433587 467.374122,66.2753484 L467.374122,66.2753484 L467.869385,75.5586716 C467.872167,76.7223042 468.340997,77.6556487 469.057458,77.6556487 C471.206841,77.6529391 475.447178,68.1230722 478.076521,68.1203632 C480.225905,68.1203632 487.6298,71.3755544 489.542682,71.3714903 C490.015685,71.3714903 490.257752,71.1357837 490.257752,70.669789 C490.256361,68.5782304 485.231394,62.0692026 485.231394,60.4571854 C485.231394,58.3656268 498.842765,58.5864326 498.842765,56.2591673 C498.839983,54.3992515 485.46094,51.8525352 485.458158,49.7623313 C485.458158,47.8969971 491.422175,41.6304493 491.419393,40.003531 C491.419393,39.5334722 490.946389,39.3018294 490.469212,39.3045387 C488.072197,39.3045387 482.354421,42.7995005 479.253465,42.8022098 C476.611602,42.804919 473.740193,30.4939839 472.073551,30.4939839 Z M168.700967,2.50250783 C184.458171,2.48878838 181.374392,15.7006195 193.79304,15.6896268 C205.729979,15.6800082 203.569245,2.94223657 219.085594,2.92849572 C228.874329,2.9202512 236.034542,4.33006282 236.037327,5.74949303 C236.040111,9.04592389 224.349597,9.05691659 224.357951,16.3697991 C224.362127,23.6716889 245.604697,29.7822466 245.610275,35.4324858 C245.613051,37.0813882 244.180451,37.5540736 242.746459,37.5540736 C238.697869,37.5595699 231.291231,34.261765 225.805864,34.2672614 C221.984207,34.2727577 219.119007,36.160751 219.121791,40.1730804 C219.127361,46.7659421 226.304281,56.901196 226.307066,61.8424071 C226.30985,63.4940578 225.122282,64.673023 223.684113,64.673023 C217.948146,64.6785193 211.733253,46.5364699 203.364588,46.5447144 C193.103889,46.5529589 196.230826,72.718293 189.059475,72.7224171 C182.148469,72.7279116 190.472583,46.0912662 177.820041,46.1022589 C170.175333,46.1105034 162.071191,58.1406211 157.288897,58.1461174 C156.097153,58.1461174 154.905408,57.673432 154.905408,56.2540018 C154.899839,51.5395148 167.790452,40.923331 167.784883,35.0298788 C167.782099,31.961546 164.674652,31.2662589 161.327743,31.2717552 C155.359274,31.2772515 147.005923,33.635182 141.748881,33.6406784 C139.355646,33.6406784 137.458041,32.9330245 137.458041,31.2923665 C137.452474,26.3415368 161.563029,23.9616209 161.554675,15.7198566 C161.546322,7.93154062 150.330557,9.12424678 150.327772,6.29088268 C150.324988,4.17066891 159.151695,2.51352192 168.700967,2.50250783 Z M310.074466,24.7735356 C316.292144,24.768209 319.38706,25.0031776 319.392668,32.0646025 C319.398198,37.7230861 318.206453,43.1534716 314.15647,43.1548506 C307.228758,43.1603421 292.174628,33.9745812 292.169058,29.7382759 C292.166274,26.9131563 302.202825,24.7819499 310.074466,24.7735356 Z M651.787528,15.1063403 C648.564541,15.1090677 646.03555,17.68376 646.038231,20.9596508 C646.040919,24.21648 648.573938,26.7830029 651.798267,26.777574 C655.027968,26.7748336 657.560984,24.2055875 657.558302,20.9487584 C657.555615,17.6728676 655.017229,15.1036215 651.787528,15.1063403 Z" id="logo"></path>
                </g>
            </g>
        </g>
    </g>
</svg>